<?xml version="1.0" encoding="UTF-8" standalone="no"?>
<svg
   xmlns:dc="http://purl.org/dc/elements/1.1/"
   xmlns:cc="http://creativecommons.org/ns#"
   xmlns:rdf="http://www.w3.org/1999/02/22-rdf-syntax-ns#"
   xmlns:svg="http://www.w3.org/2000/svg"
   xmlns="http://www.w3.org/2000/svg"
   id="svg907"
   version="1.1"
   viewBox="0 0 39.6875 39.687498"
   height="150"
   width="150">
  <defs
     id="defs901" />
  <metadata
     id="metadata904">
    <rdf:RDF>
      <cc:Work
         rdf:about="">
        <dc:format>image/svg+xml</dc:format>
        <dc:type
           rdf:resource="http://purl.org/dc/dcmitype/StillImage" />
        <dc:title></dc:title>
      </cc:Work>
    </rdf:RDF>
  </metadata>
  <g
     transform="translate(-9.9421723,-5.5620455)"
     id="layer1">
    <path
       id="path867"
       d="m 12.06994,34.409749 c 0,-0.92392 0.749565,-1.67269 1.67349,-1.67269 0.923925,0 1.673489,0.74877 1.673489,1.67269 0,0.92393 -0.749564,1.6727 -1.673489,1.6727 -0.923925,0 -1.67349,-0.74877 -1.67349,-1.6727 M 27.897844,7.4651086 c 0,0.92393 0.749565,1.6727 1.673225,1.6727 0.923925,0 1.673754,-0.74877 1.673754,-1.6727 0,-0.92392 -0.749829,-1.67349 -1.673754,-1.67349 -0.92366,0 -1.673225,0.74957 -1.673225,1.67349 m 0,4.4905104 c 0,0.92393 0.749565,1.6727 1.673225,1.6727 0.923925,0 1.673754,-0.74877 1.673754,-1.6727 0,-0.92392 -0.749829,-1.67269 -1.673754,-1.67269 -0.92366,0 -1.673225,0.74877 -1.673225,1.67269 m 0,4.49078 c 0,0.92366 0.749565,1.67348 1.673225,1.67348 0.923925,0 1.673754,-0.74982 1.673754,-1.67348 0,-0.92314 -0.749829,-1.6727 -1.673754,-1.6727 -0.92366,-2.7e-4 -1.673225,0.7493 -1.673225,1.6727 m 0,4.49103 c 0,0.92393 0.749565,1.6727 1.673225,1.6727 0.923925,0 1.673754,-0.74877 1.673754,-1.6727 0,-0.92392 -0.749829,-1.67269 -1.673754,-1.67269 -0.92366,0 -1.673225,0.74877 -1.673225,1.67269 m 0,4.49051 c 0,0.92393 0.749565,1.67349 1.673225,1.67349 0.923925,0 1.673754,-0.74956 1.673754,-1.67349 0,-0.92313 -0.749829,-1.67269 -1.673754,-1.67269 -0.92366,0 -1.673225,0.74956 -1.673225,1.67269 m 0,4.49157 c 0,0.92313 0.749565,1.67269 1.673225,1.67269 0.923925,0 1.673754,-0.74956 1.673754,-1.67269 0,-0.92393 -0.749829,-1.67349 -1.673754,-1.67349 -0.92366,-2.7e-4 -1.673225,0.7493 -1.673225,1.67349 m 0,4.49024 c 0,0.92393 0.749565,1.6727 1.673225,1.6727 0.923925,0 1.673754,-0.74877 1.673754,-1.6727 0,-0.92392 -0.749829,-1.67269 -1.673754,-1.67269 -0.92366,0 -1.673225,0.74877 -1.673225,1.67269 m 0,4.49077 c 0,0.92366 0.749565,1.67349 1.673225,1.67349 0.923925,0 1.673754,-0.74983 1.673754,-1.67349 0,-0.92313 -0.749829,-1.67269 -1.673754,-1.67269 -0.92366,0 -1.673225,0.74956 -1.673225,1.67269 m 0,4.49131 c 0,0.92392 0.749565,1.67269 1.673225,1.67269 0.923925,0 1.673754,-0.74877 1.673754,-1.67269 0,-0.92393 -0.749829,-1.67349 -1.673754,-1.67349 -0.92366,-2.7e-4 -1.673225,0.7493 -1.673225,1.67349 M 32.06609,9.7100986 c 0,0.9239304 0.748771,1.6734904 1.672696,1.6734904 0.924719,0 1.673489,-0.74956 1.673489,-1.6734904 0,-0.92313 -0.74877,-1.67269 -1.673489,-1.67269 -0.923925,-2.7e-4 -1.672696,0.7493 -1.672696,1.67269 m 0,4.4910404 c 0,0.92393 0.748771,1.6727 1.672696,1.6727 0.924719,0 1.673489,-0.74877 1.673489,-1.6727 0,-0.92392 -0.74877,-1.67349 -1.673489,-1.67349 -0.923925,0 -1.672696,0.74957 -1.672696,1.67349 m 0,4.49077 c 0,0.92393 0.748771,1.67349 1.672696,1.67349 0.924719,0 1.673489,-0.74956 1.673489,-1.67349 0,-0.92392 -0.74877,-1.67269 -1.673489,-1.67269 -0.923925,0 -1.672696,0.74877 -1.672696,1.67269 m 0,4.49131 c 0,0.92313 0.748771,1.67269 1.672696,1.67269 0.924719,0 1.673489,-0.74956 1.673489,-1.67269 0,-0.92393 -0.74877,-1.67349 -1.673489,-1.67349 -0.923925,-2.7e-4 -1.672696,0.7493 -1.672696,1.67349 m 0,4.4905 c 0,0.92366 0.748771,1.6727 1.672696,1.6727 0.924719,0 1.673489,-0.74904 1.673489,-1.6727 0,-0.92392 -0.74877,-1.67269 -1.673489,-1.67269 -0.923925,0 -1.672696,0.74877 -1.672696,1.67269 m 0,4.49051 c 0,0.92393 0.748771,1.67349 1.672696,1.67349 0.924719,0 1.673489,-0.74956 1.673489,-1.67349 0,-0.92313 -0.74877,-1.67269 -1.673489,-1.67269 -0.923925,0 -1.672696,0.74956 -1.672696,1.67269 m 0,4.4913 c 0,0.92393 0.748771,1.6727 1.672696,1.6727 0.924719,0 1.673489,-0.74877 1.673489,-1.6727 0,-0.92392 -0.74877,-1.67348 -1.673489,-1.67348 -0.923925,-2.7e-4 -1.672696,0.7493 -1.672696,1.67348 m 0,4.49051 c 0,0.92393 0.748771,1.6727 1.672696,1.6727 0.924719,0 1.673489,-0.74877 1.673489,-1.6727 0,-0.92392 -0.74877,-1.67269 -1.673489,-1.67269 -0.923925,0 -1.672696,0.74877 -1.672696,1.67269 m 3.947054,-29.19042 c 0,0.92393 0.749565,1.6727 1.67349,1.6727 0.923925,0 1.673489,-0.74877 1.673489,-1.6727 0,-0.92392 -0.749564,-1.67269 -1.673489,-1.67269 -0.923925,0 -1.67349,0.74877 -1.67349,1.67269 m 0,4.49078 c 0,0.92366 0.749565,1.67348 1.67349,1.67348 0.923925,0 1.673489,-0.74982 1.673489,-1.67348 0,-0.92314 -0.749564,-1.6727 -1.673489,-1.6727 -0.923925,0 -1.67349,0.7493 -1.67349,1.6727 m 0,4.49103 c 0,0.92393 0.749565,1.6727 1.67349,1.6727 0.923925,0 1.673489,-0.74877 1.673489,-1.6727 0,-0.92392 -0.749564,-1.67269 -1.673489,-1.67269 -0.923925,0 -1.67349,0.74877 -1.67349,1.67269 m 0,4.49051 c 0,0.92393 0.749565,1.67349 1.67349,1.67349 0.923925,0 1.673489,-0.74956 1.673489,-1.67349 0,-0.92313 -0.749564,-1.67269 -1.673489,-1.67269 -0.923925,0 -1.67349,0.74956 -1.67349,1.67269 m 0,4.49157 c 0,0.92313 0.749565,1.67269 1.67349,1.67269 0.923925,0 1.673489,-0.74956 1.673489,-1.67269 0,-0.92393 -0.749564,-1.67349 -1.673489,-1.67349 -0.923925,0 -1.67349,0.7493 -1.67349,1.67349 m 0,4.49024 c 0,0.92393 0.749565,1.6727 1.67349,1.6727 0.923925,0 1.673489,-0.74877 1.673489,-1.6727 0,-0.92392 -0.749564,-1.67269 -1.673489,-1.67269 -0.923925,0 -1.67349,0.74877 -1.67349,1.67269 m 0,4.49077 c 0,0.92366 0.749565,1.67349 1.67349,1.67349 0.923925,0 1.673489,-0.74983 1.673489,-1.67349 0,-0.92313 -0.749564,-1.67269 -1.673489,-1.67269 -0.923925,0 -1.67349,0.74956 -1.67349,1.67269 m 3.998648,-24.69938 c 0,0.92393 0.748771,1.6727 1.672696,1.6727 0.924719,0 1.674283,-0.74877 1.674283,-1.6727 0,-0.92392 -0.749564,-1.67349 -1.674283,-1.67349 -0.923661,0 -1.672696,0.74957 -1.672696,1.67349 m 0,4.49077 c 0,0.92393 0.748771,1.67349 1.672696,1.67349 0.924719,0 1.674283,-0.74956 1.674283,-1.67349 0,-0.92392 -0.749564,-1.67269 -1.674283,-1.67269 -0.923661,0 -1.672696,0.74877 -1.672696,1.67269 m 0,4.49131 c 0,0.92313 0.748771,1.67269 1.672696,1.67269 0.924719,0 1.674283,-0.74956 1.674283,-1.67269 0,-0.92393 -0.749564,-1.67349 -1.674283,-1.67349 -0.923661,-2.7e-4 -1.672696,0.7493 -1.672696,1.67349 m 0,4.4905 c 0,0.92366 0.748771,1.6727 1.672696,1.6727 0.924719,0 1.674283,-0.74904 1.674283,-1.6727 0,-0.92392 -0.749564,-1.67269 -1.674283,-1.67269 -0.923661,0 -1.672696,0.74877 -1.672696,1.67269 m 0,4.49051 c 0,0.92393 0.748771,1.67349 1.672696,1.67349 0.924719,0 1.674283,-0.74956 1.674283,-1.67349 0,-0.92313 -0.749564,-1.67269 -1.674283,-1.67269 -0.923661,0 -1.672696,0.74956 -1.672696,1.67269 m 0,4.4913 c 0,0.92393 0.748771,1.6727 1.672696,1.6727 0.924719,0 1.674283,-0.74877 1.674283,-1.6727 0,-0.92392 -0.749564,-1.67348 -1.674283,-1.67348 -0.923661,-2.7e-4 -1.672696,0.7493 -1.672696,1.67348 m 4.011348,-20.20913 c 0,0.92366 0.749565,1.67348 1.672696,1.67348 0.924454,0 1.674283,-0.74982 1.674283,-1.67348 0,-0.92314 -0.749829,-1.6727 -1.674283,-1.6727 -0.923131,-2.7e-4 -1.672696,0.7493 -1.672696,1.6727 m 0,4.49103 c 0,0.92393 0.749565,1.6727 1.672696,1.6727 0.924454,0 1.674283,-0.74877 1.674283,-1.6727 0,-0.92392 -0.749829,-1.67269 -1.674283,-1.67269 -0.923131,0 -1.672696,0.74877 -1.672696,1.67269 m 0,4.49051 c 0,0.92393 0.749565,1.67349 1.672696,1.67349 0.924454,0 1.674283,-0.74956 1.674283,-1.67349 0,-0.92313 -0.749829,-1.67269 -1.674283,-1.67269 -0.923131,0 -1.672696,0.74956 -1.672696,1.67269 m 0,4.49157 c 0,0.92313 0.749565,1.67269 1.672696,1.67269 0.924454,0 1.674283,-0.74956 1.674283,-1.67269 0,-0.92393 -0.749829,-1.67349 -1.674283,-1.67349 -0.923131,-2.7e-4 -1.672696,0.7493 -1.672696,1.67349 m 0,4.49024 c 0,0.92393 0.749565,1.6727 1.672696,1.6727 0.924454,0 1.674283,-0.74877 1.674283,-1.6727 0,-0.92392 -0.749829,-1.67269 -1.674283,-1.67269 -0.923131,0 -1.672696,0.74877 -1.672696,1.67269 M 24.001325,9.7100986 c 0,0.9239304 0.748771,1.6734904 1.672696,1.6734904 0.924719,0 1.674284,-0.74956 1.674284,-1.6734904 0,-0.92313 -0.749565,-1.67269 -1.674284,-1.67269 -0.923925,-2.7e-4 -1.672696,0.7493 -1.672696,1.67269 m 0,4.4910404 c 0,0.92393 0.748771,1.6727 1.672696,1.6727 0.924719,0 1.674284,-0.74877 1.674284,-1.6727 0,-0.92392 -0.749565,-1.67349 -1.674284,-1.67349 -0.923925,0 -1.672696,0.74957 -1.672696,1.67349 m 0,4.49077 c 0,0.92393 0.748771,1.67349 1.672696,1.67349 0.924719,0 1.674284,-0.74956 1.674284,-1.67349 0,-0.92392 -0.749565,-1.67269 -1.674284,-1.67269 -0.923925,0 -1.672696,0.74877 -1.672696,1.67269 m 0,4.49131 c 0,0.92313 0.748771,1.67269 1.672696,1.67269 0.924719,0 1.674284,-0.74956 1.674284,-1.67269 0,-0.92393 -0.749565,-1.67349 -1.674284,-1.67349 -0.923925,-2.7e-4 -1.672696,0.7493 -1.672696,1.67349 m 0,4.4905 c 0,0.92366 0.748771,1.6727 1.672696,1.6727 0.924719,0 1.674284,-0.74904 1.674284,-1.6727 0,-0.92392 -0.749565,-1.67269 -1.674284,-1.67269 -0.923925,0 -1.672696,0.74877 -1.672696,1.67269 m 0,4.49051 c 0,0.92393 0.748771,1.67349 1.672696,1.67349 0.924719,0 1.674284,-0.74956 1.674284,-1.67349 0,-0.92313 -0.749565,-1.67269 -1.674284,-1.67269 -0.923925,0 -1.672696,0.74956 -1.672696,1.67269 m 0,4.4913 c 0,0.92393 0.748771,1.6727 1.672696,1.6727 0.924719,0 1.674284,-0.74877 1.674284,-1.6727 0,-0.92392 -0.749565,-1.67348 -1.674284,-1.67348 -0.923925,-2.7e-4 -1.672696,0.7493 -1.672696,1.67348 m 0,4.49051 c 0,0.92393 0.748771,1.6727 1.672696,1.6727 0.924719,0 1.674284,-0.74877 1.674284,-1.6727 0,-0.92392 -0.749565,-1.67269 -1.674284,-1.67269 -0.923925,0 -1.672696,0.74877 -1.672696,1.67269 m -3.96531,-29.19042 c 0,0.92393 0.749565,1.6727 1.67349,1.6727 0.924718,0 1.673489,-0.74877 1.673489,-1.6727 0,-0.92392 -0.748771,-1.67269 -1.673489,-1.67269 -0.923925,0 -1.67349,0.74877 -1.67349,1.67269 m 0,4.49078 c 0,0.92366 0.749565,1.67348 1.67349,1.67348 0.924718,0 1.673489,-0.74982 1.673489,-1.67348 0,-0.92314 -0.748771,-1.6727 -1.673489,-1.6727 -0.923925,-2.7e-4 -1.67349,0.7493 -1.67349,1.6727 m 0,4.49103 c 0,0.92393 0.749565,1.6727 1.67349,1.6727 0.924718,0 1.673489,-0.74877 1.673489,-1.6727 0,-0.92392 -0.748771,-1.67269 -1.673489,-1.67269 -0.923925,0 -1.67349,0.74877 -1.67349,1.67269 m 0,4.49051 c 0,0.92393 0.749565,1.67349 1.67349,1.67349 0.924718,0 1.673489,-0.74956 1.673489,-1.67349 0,-0.92313 -0.748771,-1.67269 -1.673489,-1.67269 -0.923925,0 -1.67349,0.74956 -1.67349,1.67269 m 0,8.98181 c 0,0.92393 0.749565,1.6727 1.67349,1.6727 0.924718,0 1.673489,-0.74877 1.673489,-1.6727 0,-0.92392 -0.748771,-1.67269 -1.673489,-1.67269 -0.923925,0 -1.67349,0.74877 -1.67349,1.67269 m 0,4.49077 c 0,0.92366 0.749565,1.67349 1.67349,1.67349 0.924718,0 1.673489,-0.74983 1.673489,-1.67349 0,-0.92313 -0.748771,-1.67269 -1.673489,-1.67269 -0.923925,0 -1.67349,0.74956 -1.67349,1.67269 m -4.04839,-24.69938 c 0,0.92393 0.749036,1.6727 1.672696,1.6727 0.924719,0 1.672696,-0.74877 1.672696,-1.6727 0,-0.92392 -0.747977,-1.67349 -1.672696,-1.67349 -0.92366,0 -1.672696,0.74957 -1.672696,1.67349 m 0,4.49077 c 0,0.92393 0.749036,1.67349 1.672696,1.67349 0.924719,0 1.672696,-0.74956 1.672696,-1.67349 0,-0.92392 -0.747977,-1.67269 -1.672696,-1.67269 -0.92366,0 -1.672696,0.74877 -1.672696,1.67269 m 0,4.49131 c 0,0.92313 0.749036,1.67269 1.672696,1.67269 0.924719,0 1.672696,-0.74956 1.672696,-1.67269 0,-0.92393 -0.747977,-1.67349 -1.672696,-1.67349 -0.92366,-2.7e-4 -1.672696,0.7493 -1.672696,1.67349 m 0,4.4905 c 0,0.92366 0.749036,1.6727 1.672696,1.6727 0.924719,0 1.672696,-0.74904 1.672696,-1.6727 0,-0.92392 -0.747977,-1.67269 -1.672696,-1.67269 -0.92366,0 -1.672696,0.74877 -1.672696,1.67269 m 0,4.49051 c 0,0.92393 0.749036,1.67349 1.672696,1.67349 0.924719,0 1.672696,-0.74956 1.672696,-1.67349 0,-0.92313 -0.747977,-1.67269 -1.672696,-1.67269 -0.92366,0 -1.672696,0.74956 -1.672696,1.67269 m 0,4.4913 c 0,0.92393 0.749036,1.6727 1.672696,1.6727 0.924719,0 1.672696,-0.74877 1.672696,-1.6727 0,-0.92392 -0.747977,-1.67348 -1.672696,-1.67348 -0.92366,-2.7e-4 -1.672696,0.7493 -1.672696,1.67348 M 12.06994,16.446399 c 0,0.92366 0.749565,1.67348 1.67349,1.67348 0.923925,0 1.673489,-0.74982 1.673489,-1.67348 0,-0.92314 -0.749564,-1.6727 -1.673489,-1.6727 -0.923925,0 -1.67349,0.7493 -1.67349,1.6727 m 0,4.49103 c 0,0.92393 0.749565,1.6727 1.67349,1.6727 0.923925,0 1.673489,-0.74877 1.673489,-1.6727 0,-0.92392 -0.749564,-1.67269 -1.673489,-1.67269 -0.923925,0 -1.67349,0.74877 -1.67349,1.67269 m 0,4.49051 c 0,0.92393 0.749565,1.67349 1.67349,1.67349 0.923925,0 1.673489,-0.74956 1.673489,-1.67349 0,-0.92313 -0.749564,-1.67269 -1.673489,-1.67269 -0.923925,0 -1.67349,0.74956 -1.67349,1.67269 m 0,4.49157 c 0,0.92313 0.749565,1.67269 1.67349,1.67269 0.923925,0 1.673489,-0.74956 1.673489,-1.67269 0,-0.92393 -0.749564,-1.67349 -1.673489,-1.67349 -0.923925,0 -1.67349,0.7493 -1.67349,1.67349"
       style="fill:#6faa46;stroke-width:0.26458332" />
    <path
       id="path869"
       d="m 20.036015,29.919509 c 0,-0.92393 0.749565,-1.67349 1.67349,-1.67349 0.924718,0 1.673489,0.74956 1.673489,1.67349 0,0.92313 -0.748771,1.67269 -1.673489,1.67269 -0.923925,0 -1.67349,-0.74956 -1.67349,-1.67269"
       style="fill:#e2001a;stroke-width:0.26458332" />
  </g>
</svg>
